<svg width="41" height="42" viewBox="0 0 41 42" fill="none" xmlns="http://www.w3.org/2000/svg">
<path d="M37.2208 28.7672C37.0442 29.3868 36.7989 29.9845 36.4896 30.5493L38.362 33.0511L35.4646 35.9573L32.9705 34.0793C32.4074 34.3895 31.8115 34.6355 31.1938 34.8127L30.7496 37.9177H26.6497L26.2055 34.8127C25.5878 34.6355 24.9919 34.3895 24.4288 34.0793L21.9347 35.9573L19.0373 33.0511L20.9097 30.5493C20.6004 29.9845 20.3551 29.3868 20.1785 28.7672L17.083 28.3217V24.2091L20.1785 23.7636C20.3551 23.144 20.6004 22.5462 20.9097 21.9815L19.0373 19.4796L21.9347 16.5734L23.438 17.7044L24.4288 18.4515C24.7061 18.2994 24.9912 18.1621 25.283 18.0402C25.5842 17.9155 25.8922 17.808 26.2055 17.7181L26.6497 14.6131H30.7496L31.1938 17.7181C31.5071 17.808 31.8151 17.9155 32.1163 18.0402C32.4081 18.1621 32.6932 18.2994 32.9705 18.4515L34.8496 17.0395L35.4646 16.5734L38.362 19.4796L36.4896 21.9815C36.7989 22.5462 37.0442 23.144 37.2208 23.7636L40.3163 24.2091V28.3217L37.2208 28.7672Z" fill="#FF9811"/>
<path d="M32.1167 21.9884C31.3303 21.3544 30.3842 20.9511 29.3834 20.8232C29.1566 20.7956 28.9284 20.7819 28.7 20.782C27.2502 20.782 25.8597 21.3598 24.8345 22.3881C23.8093 23.4164 23.2334 24.8111 23.2334 26.2654C23.2357 27.1735 23.4622 28.067 23.8926 28.8659C24.3231 29.6649 24.9441 30.3444 25.7002 30.844C26.5901 31.434 27.6333 31.7486 28.7 31.7487C29.1609 31.7479 29.6199 31.6904 30.0667 31.5774C31.0493 31.3228 31.9419 30.7988 32.6444 30.0642C33.347 29.3296 33.8318 28.4133 34.0446 27.418C34.2574 26.4227 34.1897 25.3876 33.8492 24.4286C33.5087 23.4697 32.9088 22.6247 32.1167 21.9884Z" fill="#FFD422"/>
<path d="M32.1164 18.041C31.8152 17.9162 31.5072 17.8087 31.1939 17.7188L30.7497 14.6138H29.3831V8.95221C28.6954 8.47252 28.1455 7.81991 27.7885 7.05981C27.4316 6.29972 27.2801 5.45885 27.3494 4.62152C27.4186 3.7842 27.706 2.97983 28.1829 2.28909C28.6598 1.59835 29.3093 1.0455 30.0664 0.685974V5.01786L32.1164 5.70329L34.1664 5.01786V0.685974C34.9235 1.0455 35.573 1.59835 36.0499 2.28909C36.5268 2.97983 36.8142 3.7842 36.8835 4.62152C36.9527 5.45885 36.8012 6.29972 36.4443 7.05981C36.0873 7.81991 35.5374 8.47252 34.8497 8.95221V17.0402L32.9706 18.4522C32.6933 18.3001 32.4082 18.1628 32.1164 18.041Z" fill="#C6C5CA"/>
<path d="M32.1161 18.0403V21.9883C31.3297 21.3544 30.3837 20.9511 29.3828 20.8231V14.6131H30.7495L31.1936 17.7181C31.5069 17.808 31.8149 17.9155 32.1161 18.0403Z" fill="#FF9811"/>
<path d="M22.551 13.2423H21.1843C20.9443 13.2427 20.7086 13.3066 20.501 13.4274V17.3548C20.501 17.5193 20.4941 17.6838 20.4805 17.8415C20.5215 17.8684 20.565 17.8913 20.6103 17.91C20.7899 17.995 20.9858 18.0394 21.1843 18.0403H22.551C22.8783 18.0421 23.1947 17.9225 23.4393 17.7044C23.5894 17.5773 23.71 17.4188 23.7927 17.24C23.8753 17.0612 23.9179 16.8665 23.9176 16.6694V14.6132C23.9166 14.2499 23.7722 13.9019 23.5162 13.645C23.2601 13.3882 22.9131 13.2434 22.551 13.2423Z" fill="#EE8700"/>
<path d="M25.6994 30.844C24.9326 29.54 23.7544 28.5295 22.3511 27.9721L17.0826 25.8541L16.3993 25.58C16.3993 26.3071 16.1113 27.0045 15.5987 27.5186C15.0861 28.0328 14.3909 28.3217 13.6659 28.3217C12.941 28.3217 12.2458 28.0328 11.7332 27.5186C11.2206 27.0045 10.9326 26.3071 10.9326 25.58L4.98078 27.9721C3.71181 28.4788 2.62371 29.356 1.85739 30.4901C1.09107 31.6241 0.681815 32.9628 0.682618 34.3329V40.6594H26.6493V34.3329C26.6501 33.1056 26.322 31.9006 25.6994 30.844Z" fill="#3D9AE2"/>
<path d="M16.3993 23.6334V25.58C16.3993 26.3071 16.1113 27.0045 15.5987 27.5186C15.0861 28.0328 14.3909 28.3217 13.666 28.3217C12.941 28.3217 12.2458 28.0328 11.7332 27.5186C11.2206 27.0045 10.9326 26.3071 10.9326 25.58V23.6334C11.7942 24.013 12.7249 24.2091 13.666 24.2091C14.607 24.2091 15.5378 24.013 16.3993 23.6334Z" fill="#FFC477"/>
<path d="M6.83367 17.3549C6.83367 17.5194 6.8405 17.6839 6.85417 17.8416C6.64338 17.9741 6.39908 18.0431 6.15033 18.0403H4.78366C4.42153 18.0392 4.07454 17.8945 3.81848 17.6376C3.56241 17.3808 3.41807 17.0327 3.41699 16.6695V14.6132C3.41807 14.2499 3.56241 13.9019 3.81848 13.645C4.07454 13.3882 4.42153 13.2434 4.78366 13.2423H6.15033C6.39036 13.2427 6.62604 13.3066 6.83367 13.4274V17.3549Z" fill="#EE8700"/>
<path d="M16.3993 23.6334V25.0042C15.5378 25.3839 14.607 25.58 13.666 25.58C12.7249 25.58 11.7942 25.3839 10.9326 25.0042V23.6334C11.7942 24.0131 12.7249 24.2091 13.666 24.2091C14.607 24.2091 15.5378 24.0131 16.3993 23.6334Z" fill="#FFB655"/>
<path d="M20.4996 13.4274V13.9277H19.8163C19.392 13.9277 18.9735 13.8286 18.5939 13.6383C18.2144 13.4479 17.8842 13.1716 17.6296 12.8311L16.3997 11.1861L14.1037 13.0298C13.3784 13.612 12.4769 13.9287 11.548 13.9277H6.83301V12.5569C6.83301 10.739 7.55294 8.99566 8.83444 7.71025C10.1159 6.42483 11.854 5.7027 13.6663 5.7027C15.4786 5.7027 17.2167 6.42483 18.4982 7.71025C19.7797 8.99566 20.4996 10.739 20.4996 12.5569V13.4274Z" fill="#57565C"/>
<path d="M19.8163 13.9277C19.392 13.9277 18.9735 13.8286 18.5939 13.6383C18.2144 13.4479 17.8842 13.1716 17.6296 12.8311L16.3997 11.186L14.1037 13.0298C13.3784 13.612 12.4769 13.9287 11.548 13.9277H6.83301V17.3549C6.83301 17.5194 6.83984 17.6839 6.85351 17.8415C6.95149 19.2343 7.47155 20.5637 8.34398 21.6517C9.21642 22.7396 10.3995 23.5341 11.7348 23.9286C13.07 24.323 14.4936 24.2987 15.8146 23.8588C17.1357 23.419 18.2912 22.5846 19.1261 21.4674C19.3727 21.1501 19.5857 20.8078 19.7616 20.4462C20.1429 19.6998 20.3816 18.8884 20.4655 18.054V18.0472C20.4723 17.9786 20.4791 17.9101 20.4791 17.8415C20.4928 17.6839 20.4996 17.5194 20.4996 17.3549V13.9277H19.8163Z" fill="#FFC477"/>
<path d="M10.934 15.9839H9.56738V17.3549H10.934V15.9839Z" fill="black"/>
<path d="M17.767 15.9839H16.4004V17.3549H17.767V15.9839Z" fill="black"/>
<path d="M40.4137 23.5305L37.7439 23.148C37.6169 22.7735 37.467 22.4073 37.295 22.0514L38.9104 19.8909C39.009 19.7589 39.0569 19.5956 39.0452 19.4311C39.0336 19.2665 38.9631 19.1117 38.8468 18.995L35.9474 16.0868C35.8361 15.9758 35.6896 15.9073 35.5333 15.8928V9.29489C36.1727 8.78144 36.6888 8.13045 37.0437 7.39003C37.3985 6.6496 37.5829 5.83867 37.5833 5.01715C37.5896 3.97837 37.2985 2.95961 36.7445 2.08189C36.1906 1.20418 35.3972 0.50438 34.4585 0.0656286C34.3543 0.0163031 34.2394 -0.00582258 34.1245 0.0013068C34.0096 0.00843618 33.8983 0.0445893 33.801 0.106408C33.7037 0.168227 33.6236 0.253705 33.568 0.354904C33.5125 0.456102 33.4834 0.569737 33.4833 0.685254V4.52364L32.1167 4.98082L30.75 4.52364V0.685254C30.7495 0.56997 30.7201 0.456672 30.6643 0.355843C30.6086 0.255014 30.5284 0.169913 30.4312 0.108413C30.334 0.0469136 30.2229 0.0110027 30.1082 0.00400337C29.9935 -0.00299594 29.8788 0.0191425 29.7749 0.0683702C28.8366 0.506927 28.0434 1.2063 27.4895 2.08348C26.9357 2.96066 26.6443 3.97883 26.65 5.01715C26.6504 5.83867 26.8349 6.6496 27.1897 7.39003C27.5445 8.13045 28.0607 8.78144 28.7 9.29489V13.9277H26.65C26.4856 13.9277 26.3266 13.9871 26.2024 14.0951C26.0781 14.2032 25.9969 14.3525 25.9735 14.5158L25.5314 17.6201L26.8844 17.8141L27.2425 15.2985H30.1576L30.5156 17.8141C30.5343 17.9444 30.5899 18.0666 30.676 18.166C30.762 18.2654 30.8748 18.3379 31.0008 18.3747C31.5703 18.5398 32.1203 18.7666 32.6408 19.0512C32.756 19.1146 32.8869 19.1433 33.0179 19.1339C33.1489 19.1246 33.2744 19.0775 33.3795 18.9985L35.4028 17.4768L37.4638 19.5441L35.9433 21.5736C35.8645 21.679 35.8176 21.8049 35.8083 21.9363C35.799 22.0677 35.8276 22.199 35.8907 22.3146C36.1745 22.8367 36.4006 23.3883 36.5652 23.9596C36.6019 24.086 36.6742 24.1991 36.7733 24.2854C36.8724 24.3717 36.9942 24.4275 37.1241 24.4462L39.632 24.8054V27.7294L37.1241 28.0886C36.9942 28.1073 36.8724 28.1631 36.7733 28.2494C36.6742 28.3357 36.6019 28.4488 36.5652 28.5752C36.4006 29.1465 36.1745 29.6981 35.8907 30.2203C35.8276 30.3358 35.799 30.4671 35.8083 30.5985C35.8176 30.7299 35.8645 30.8558 35.9433 30.9612L37.4603 32.9908L35.3994 35.058L33.3774 33.5309C33.2724 33.4518 33.1468 33.4048 33.0158 33.3954C32.8848 33.386 32.7539 33.4148 32.6387 33.4781C32.1182 33.7627 31.5683 33.9895 30.9987 34.1546C30.8727 34.1915 30.76 34.2639 30.6739 34.3634C30.5879 34.4628 30.5322 34.585 30.5136 34.7153L30.1576 37.2322H27.3333V34.3335C27.3329 33.6094 27.2293 32.889 27.0258 32.1943C28.3274 32.5765 29.7178 32.5219 30.9856 32.0388C32.2534 31.5557 33.3292 30.6705 34.0495 29.5179C34.7698 28.3653 35.0951 27.0082 34.976 25.6531C34.8569 24.298 34.2998 23.019 33.3896 22.0106C32.4793 21.0022 31.2657 20.3195 29.9331 20.0664C28.6006 19.8133 27.2222 20.0036 26.0074 20.6083C24.7926 21.2131 23.8079 22.1993 23.2031 23.4168C22.5982 24.6344 22.4064 26.0168 22.6566 27.3538C22.6402 27.347 22.6245 27.3387 22.6081 27.3326L17.0834 25.1159V24.0624C17.9965 23.5938 18.8052 22.9442 19.4607 22.1528H21.1834C21.727 22.1528 22.2485 21.9362 22.6329 21.5505C23.0174 21.1649 23.2334 20.6419 23.2334 20.0965V18.5995C23.6317 18.4583 23.9768 18.197 24.2214 17.8515C24.466 17.506 24.5983 17.0932 24.6 16.6694V14.6131C24.5983 14.1893 24.466 13.7765 24.2214 13.431C23.9768 13.0855 23.6317 12.8242 23.2334 12.683V11.8714C23.2334 9.3264 22.2254 6.88563 20.4313 5.08603C18.6372 3.28644 16.2039 2.27544 13.6667 2.27544C11.1295 2.27544 8.69614 3.28644 6.90204 5.08603C5.10795 6.88563 4.10003 9.3264 4.10003 11.8714V12.683C3.70171 12.8242 3.35663 13.0855 3.112 13.431C2.86736 13.7765 2.73512 14.1893 2.73337 14.6131V16.6694C2.73337 17.2147 2.94935 17.7378 3.3338 18.1234C3.71825 18.509 4.23967 18.7257 4.78337 18.7257H6.15003C6.19377 18.7257 6.23613 18.7188 6.27918 18.7161C6.48928 19.8525 6.95652 20.9254 7.64492 21.8523C8.33333 22.7792 9.22456 23.5353 10.25 24.0624V25.1159L4.72528 27.3326C3.32758 27.8882 2.12918 28.8533 1.28631 30.1021C0.443439 31.3509 -0.00479527 32.8254 3.86905e-05 34.3335V40.6593C3.86905e-05 40.8411 0.0720324 41.0154 0.200182 41.144C0.328332 41.2725 0.50214 41.3447 0.683371 41.3447H26.65C26.8312 41.3447 27.0051 41.2725 27.1332 41.144C27.2614 41.0154 27.3333 40.8411 27.3333 40.6593V38.603H30.75C30.9144 38.603 31.0734 38.5436 31.1976 38.4356C31.3219 38.3275 31.4032 38.1782 31.4265 38.0149L31.8078 35.337C32.1812 35.2096 32.5463 35.0592 32.9011 34.8866L35.055 36.507C35.1866 36.606 35.3494 36.654 35.5134 36.6423C35.6775 36.6306 35.8318 36.5599 35.9481 36.4432L38.8475 33.535C38.9638 33.4183 39.0343 33.2635 39.0459 33.0989C39.0576 32.9344 39.0097 32.7711 38.9111 32.6391L37.2957 30.4787C37.4677 30.1227 37.6176 29.7565 37.7446 29.382L40.4144 28.9995C40.5769 28.976 40.7255 28.8945 40.8331 28.77C40.9406 28.6455 40.9999 28.4864 41 28.3216V24.2091C41 24.0441 40.9407 23.8847 40.8331 23.7601C40.7254 23.6354 40.5765 23.5539 40.4137 23.5305ZM32.897 17.6441C32.8649 17.6283 32.8287 17.618 32.7966 17.6029V9.1297H31.4333V14.5651L31.4265 14.5158C31.4032 14.3525 31.3219 14.2032 31.1976 14.0951C31.0734 13.9871 30.9144 13.9277 30.75 13.9277H30.0667V8.95149C30.0667 8.84093 30.04 8.73201 29.989 8.63402C29.9379 8.53604 29.864 8.45189 29.7735 8.38876C29.2656 8.03403 28.8443 7.56854 28.5412 7.02721C28.2382 6.48588 28.0612 5.88274 28.0237 5.26305C27.9861 4.64335 28.089 4.02316 28.3244 3.44901C28.5599 2.87485 28.9219 2.36162 29.3833 1.94781V5.01715C29.3833 5.16106 29.4284 5.30134 29.5123 5.41809C29.5962 5.53484 29.7146 5.62214 29.8507 5.66762L31.9007 6.35304C32.0409 6.39987 32.1924 6.39987 32.3326 6.35304L34.3826 5.66762C34.5187 5.62214 34.6371 5.53484 34.721 5.41809C34.8049 5.30134 34.85 5.16106 34.85 5.01715V1.94781C35.3118 2.36161 35.6741 2.87496 35.9098 3.44932C36.1456 4.02369 36.2485 4.64414 36.211 5.26412C36.1734 5.8841 35.9963 6.4875 35.6931 7.02902C35.3898 7.57054 34.9682 8.03612 34.4598 8.39081C34.3696 8.45374 34.2959 8.53757 34.2448 8.63517C34.1938 8.73277 34.167 8.84128 34.1667 8.95149V16.692L32.897 17.6441ZM23.9167 26.2654C23.9092 25.1936 24.2571 24.1498 24.9057 23.2981C25.5542 22.4464 26.4667 21.8351 27.4995 21.5604C28.5323 21.2858 29.6269 21.3633 30.6109 21.7809C31.595 22.1984 32.4127 22.9323 32.9355 23.867C33.4583 24.8017 33.6565 25.8843 33.4988 26.9443C33.3412 28.0043 32.8367 28.9817 32.0647 29.7227C31.2927 30.4637 30.297 30.9262 29.2343 31.0375C28.1716 31.1488 27.1022 30.9025 26.1942 30.3375C25.7218 29.5784 25.1175 28.9105 24.41 28.3655C24.085 27.7135 23.916 26.9944 23.9167 26.2654ZM21.1834 20.7819H20.3538C20.6868 20.1314 20.9228 19.4354 21.0542 18.7161C21.0973 18.7161 21.1396 18.7257 21.1834 18.7257H21.8667V20.0965C21.8667 20.2783 21.7947 20.4526 21.6665 20.5812C21.5384 20.7097 21.3646 20.7819 21.1834 20.7819ZM19.8167 13.2423C19.4986 13.2415 19.185 13.1668 18.9004 13.0241C18.6159 12.8814 18.3682 12.6745 18.1767 12.4197L16.9467 10.7747C16.8918 10.7013 16.8227 10.6397 16.7436 10.5935C16.6645 10.5473 16.5769 10.5176 16.4861 10.506C16.3953 10.4949 16.3032 10.5019 16.2151 10.5267C16.127 10.5515 16.0447 10.5937 15.9729 10.6507L13.6797 12.4883C13.0746 12.974 12.3233 13.2397 11.5484 13.2423H7.5167V12.5568C7.5167 10.9208 8.16464 9.35169 9.31799 8.19481C10.4713 7.03793 12.0356 6.388 13.6667 6.388C15.2978 6.388 16.862 7.03793 18.0154 8.19481C19.1687 9.35169 19.8167 10.9208 19.8167 12.5568V13.2423ZM23.2334 16.6694C23.2334 16.8512 23.1614 17.0255 23.0332 17.1541C22.9051 17.2826 22.7312 17.3548 22.55 17.3548H21.1834V13.9277H22.55C22.7312 13.9277 22.9051 13.9999 23.0332 14.1284C23.1614 14.257 23.2334 14.4313 23.2334 14.6131V16.6694ZM13.6667 3.64629C15.8407 3.64865 17.9251 4.51598 19.4624 6.05798C20.9997 7.59998 21.8643 9.69069 21.8667 11.8714V12.5568H21.1834C21.1834 10.5572 20.3914 8.63943 18.9818 7.22547C17.5721 5.8115 15.6602 5.01715 13.6667 5.01715C11.6732 5.01715 9.76126 5.8115 8.35161 7.22547C6.94196 8.63943 6.15003 10.5572 6.15003 12.5568H5.4667V11.8714C5.46905 9.69069 6.33373 7.59998 7.87102 6.05798C9.40831 4.51598 11.4926 3.64865 13.6667 3.64629ZM4.78337 17.3548C4.60214 17.3548 4.42833 17.2826 4.30018 17.1541C4.17203 17.0255 4.10003 16.8512 4.10003 16.6694V14.6131C4.10003 14.4313 4.17203 14.257 4.30018 14.1284C4.42833 13.9999 4.60214 13.9277 4.78337 13.9277H6.15003V17.3548H4.78337ZM7.5167 17.3548V14.6131H11.5484C12.6341 14.6117 13.6873 14.241 14.5359 13.5617L16.2791 12.1627L17.0834 13.2423C17.4025 13.6669 17.8154 14.0117 18.2896 14.2495C18.7638 14.4873 19.2865 14.6118 19.8167 14.6131V17.3548C19.8178 18.5756 19.4557 19.7689 18.7767 20.7819H13.6667V22.1528H17.5234C16.621 22.8847 15.5304 23.3452 14.3778 23.4811C13.2253 23.617 12.0579 23.4227 11.0109 22.9207C9.96384 22.4187 9.07998 21.6295 8.4616 20.6445C7.84321 19.6594 7.51561 18.5189 7.5167 17.3548ZM13.6667 24.8945C14.3602 24.8928 15.0501 24.7945 15.7167 24.6025V25.5799C15.7167 26.1253 15.5007 26.6483 15.1163 27.0339C14.7318 27.4196 14.2104 27.6362 13.6667 27.6362C13.123 27.6362 12.6016 27.4196 12.2171 27.0339C11.8327 26.6483 11.6167 26.1253 11.6167 25.5799V24.6025C12.2833 24.7945 12.9732 24.8928 13.6667 24.8945ZM25.9667 39.9739H21.8667V32.4342H20.5V39.9739H6.83337V32.4342H5.4667V39.9739H1.3667V34.3335C1.36273 33.0996 1.72947 31.8931 2.41913 30.8713C3.10879 29.8496 4.08936 29.0599 5.233 28.6054L10.401 26.532C10.6028 27.2447 11.0309 27.872 11.6202 28.3186C12.2096 28.7652 12.9281 29.0069 13.6667 29.0069C14.4053 29.0069 15.1238 28.7652 15.7132 28.3186C16.3025 27.872 16.7305 27.2447 16.9323 26.532L22.1004 28.6054C23.244 29.0599 24.2246 29.8496 24.9143 30.8713C25.6039 31.8931 25.9707 33.0996 25.9667 34.3335V39.9739Z" fill="black"/>
<path d="M29.3833 16.6694H28.0166V18.0402H29.3833V16.6694Z" fill="black"/>
<path d="M29.3833 34.4905H28.0166V35.8614H29.3833V34.4905Z" fill="black"/>
<path d="M34.9817 31.5963L34.0146 32.5663L34.9817 33.5362L35.9487 32.5663L34.9817 31.5963Z" fill="black"/>
<path d="M38.2671 25.58H36.9004V26.9508H38.2671V25.58Z" fill="black"/>
<path d="M34.9817 18.995L34.0146 19.965L34.9817 20.9349L35.9487 19.965L34.9817 18.995Z" fill="black"/>
</svg>
