<svg width="12" height="6" viewBox="0 0 12 6" fill="none" xmlns="http://www.w3.org/2000/svg">
<path d="M11.8625 3.23805C11.8624 3.23819 11.8623 3.23836 11.8621 3.2385L9.41278 5.676C9.22929 5.8586 8.9325 5.85792 8.74985 5.6744C8.56723 5.49091 8.56793 5.19412 8.75142 5.0115L10.3959 3.375H0.46875C0.209859 3.375 0 3.16514 0 2.90625C0 2.64736 0.209859 2.4375 0.46875 2.4375H10.3959L8.75144 0.800998C8.56795 0.618373 8.56725 0.321584 8.74988 0.138092C8.93252 -0.0454469 9.22934 -0.0460796 9.4128 0.136498L11.8621 2.574C11.8623 2.57414 11.8624 2.5743 11.8625 2.57444C12.0461 2.75768 12.0455 3.05543 11.8625 3.23805Z" fill="black"/>
</svg>
