<svg width="40" height="40" viewBox="0 0 40 40" fill="none" xmlns="http://www.w3.org/2000/svg">
<path d="M40 15.7141L38.8281 30.6055H1.17188L0 15.7141L6.66641 10.9523H33.3336L40 15.7141Z" fill="#FEB920"/>
<path d="M40 15.7141L38.8281 30.6055H20V10.9523H33.3336L40 15.7141Z" fill="#FC9B28"/>
<path d="M6.66602 1.42889H33.3332V31.4281H6.66602V1.42889Z" fill="#E6F3FF"/>
<path d="M20 1.42889H33.3336V31.4281H20V1.42889Z" fill="#BBE4F2"/>
<path d="M11.4287 5.97119H20V8.31494H11.4287V5.97119Z" fill="#393E9F"/>
<path d="M11.4287 11.6852H28.5709V14.0289H11.4287V11.6852Z" fill="#393E9F"/>
<path d="M11.4287 17.3992H28.5709V19.743H11.4287V17.3992Z" fill="#393E9F"/>
<path d="M20 11.6851H28.5711V14.0289H20V11.6851Z" fill="#340D66"/>
<path d="M20 17.3992H28.5711V19.743H20V17.3992Z" fill="#340D66"/>
<path d="M40 15.7141V38.5711L20 36.7133L0 38.5711V15.7141L16 27.143H24L40 15.7141Z" fill="#FFCF67"/>
<path d="M40 15.7141V38.5711L20 36.7133V27.143H24L40 15.7141Z" fill="#FEB920"/>
<path d="M40 38.5711H0L20 24.2859L40 38.5711Z" fill="#FEB920"/>
<path d="M40 38.5711H20V24.2859L40 38.5711Z" fill="#FC9B28"/>
</svg>
