<svg width="40" height="40" viewBox="0 0 40 40" fill="none" xmlns="http://www.w3.org/2000/svg">
<path d="M0.546875 21.9606H4.27625V37.1H0.546875V21.9606Z" fill="#7C8388"/>
<path d="M39.4532 27.0512C39.4534 26.6991 39.3673 26.3522 39.2026 26.041C39.0379 25.7297 38.7995 25.4635 38.5083 25.2655C38.217 25.0675 37.8818 24.9438 37.5317 24.9052C37.1817 24.8665 36.8275 24.9141 36.5001 25.0437L25.1495 29.5312L16.0064 27.2953L22.4811 28.8781C22.7984 28.9557 23.1292 28.9602 23.4485 28.8912C23.7678 28.8222 24.0673 28.6816 24.3243 28.48C24.5813 28.2783 24.7891 28.0209 24.9321 27.7272C25.075 27.4334 25.1494 27.111 25.1495 26.7844C25.1495 26.3364 25.01 25.8996 24.7504 25.5346C24.4907 25.1696 24.1239 24.8945 23.7007 24.7475L18.3717 22.8953C15.3978 21.862 12.1626 21.8599 9.1873 22.8894L4.27637 24.5881V33.5509H10.0511L15.7042 36.3981C16.551 36.8244 17.4817 37.0579 18.4294 37.0816C19.3772 37.1053 20.3184 36.9187 21.1854 36.5353L38.1676 29.0253C38.5501 28.8562 38.8753 28.5796 39.1035 28.2291C39.3317 27.8787 39.4532 27.4695 39.4532 27.0512Z" fill="#FFDCAA"/>
<path d="M22.2372 14.7812L21.93 14.3278C21.134 13.1645 20.7065 11.7886 20.7031 10.3791C20.7031 6.25406 24.3481 2.89999 28.8281 2.89999C33.3081 2.89999 36.9531 6.255 36.9531 10.3791C36.9531 14.5031 33.3081 17.8584 28.8281 17.8584C27.9641 17.859 27.1048 17.7316 26.2781 17.4803L25.9503 17.3806L21.2003 18.6537L22.2372 14.7812Z" fill="#F4F1F1"/>
<path d="M32.3541 11.975C31.0948 11.2466 30.6185 11.7831 30.6185 11.7831L30.3966 12.8697C29.5087 12.5428 28.7024 12.027 28.0334 11.358C27.3643 10.6889 26.8486 9.88259 26.5216 8.9947L27.6082 8.77282C27.6082 8.77282 28.1448 8.29657 27.4166 7.03719C26.7604 5.90438 25.8991 6.14219 25.8991 6.14219L24.5804 7.46094C24.5049 7.53632 24.4485 7.62865 24.4158 7.73025C24.3832 7.83184 24.3754 7.93976 24.3929 8.04501C24.6858 9.78498 25.4992 11.3953 26.7257 12.6638C27.994 13.8904 29.6044 14.7038 31.3444 14.9966C31.4497 15.0142 31.5576 15.0064 31.6592 14.9737C31.7609 14.9411 31.8532 14.8847 31.9285 14.8091L33.2476 13.4903C33.2476 13.4903 33.4873 12.6303 32.3541 11.975Z" fill="#ABE751"/>
</svg>
