<svg width="40" height="40" viewBox="0 0 40 40" fill="none" xmlns="http://www.w3.org/2000/svg">
<path d="M33.571 26.3403H24.1476C22.8851 28.3378 21.4999 30.2552 20.0001 32.0812C18.5003 30.2552 17.1151 28.3378 15.8526 26.3403H6.42914L1.9707 38.0294H38.0295L33.571 26.3403Z" fill="#DFEEF4"/>
<path d="M20.0004 1.97186C17.4552 1.97195 15.0143 2.98307 13.2145 4.78281C11.4148 6.58256 10.4036 9.02352 10.4036 11.5687C10.3473 20.725 20.0004 32.0813 20.0004 32.0813C20.0004 32.0813 29.6535 20.725 29.5973 11.5687C29.5972 9.02352 28.5861 6.58256 26.7864 4.78281C24.9866 2.98307 22.5457 1.97195 20.0004 1.97186ZM20.0004 15.6406C19.1951 15.6406 18.4078 15.4018 17.7382 14.9544C17.0686 14.507 16.5467 13.871 16.2385 13.127C15.9303 12.3829 15.8497 11.5642 16.0068 10.7744C16.1639 9.98449 16.5517 9.25895 17.1212 8.68949C17.6906 8.12003 18.4162 7.73222 19.206 7.57511C19.9959 7.41799 20.8146 7.49863 21.5587 7.80682C22.3027 8.11501 22.9386 8.63691 23.3861 9.30653C23.8335 9.97615 24.0723 10.7634 24.0723 11.5687C24.0725 12.1035 23.9673 12.6331 23.7628 13.1272C23.5582 13.6213 23.2583 14.0703 22.8801 14.4485C22.502 14.8266 22.053 15.1265 21.5589 15.3311C21.0648 15.5356 20.5352 15.6408 20.0004 15.6406Z" fill="#F45858"/>
<path d="M34.6059 29.05L16.6121 35.45L9.59961 26.3406H15.8527C17.1149 28.3381 18.4999 30.2553 19.9996 32.0813C21.4993 30.2553 22.8843 28.3381 24.1465 26.3406H33.5715L34.6059 29.05Z" fill="#F2DA30"/>
<path d="M9.3623 38.0294L27.1736 31.6938L32.0498 38.0294H9.3623Z" fill="#3EA2E5"/>
<path d="M27.7303 6.85811C27.8065 6.98059 27.928 7.068 28.0683 7.10131C28.2087 7.13462 28.3565 7.11113 28.4796 7.03595C28.6027 6.96077 28.6911 6.84 28.7256 6.69993C28.7601 6.55987 28.7378 6.41185 28.6637 6.28811C28.3771 5.81943 28.0531 5.37465 27.6949 4.95811C27.5996 4.85086 27.466 4.78535 27.3229 4.77571C27.1797 4.76608 27.0385 4.81309 26.9297 4.90661C26.8209 5.00013 26.7532 5.13267 26.7412 5.27564C26.7292 5.41862 26.7739 5.56059 26.8656 5.67093C27.1852 6.04283 27.4743 6.43984 27.7303 6.85811Z" fill="black"/>
<path d="M15.3818 11.5691C15.382 12.4824 15.6529 13.3751 16.1604 14.1344C16.6679 14.8937 17.3891 15.4855 18.2329 15.8349C19.0767 16.1843 20.0052 16.2757 20.9009 16.0974C21.7966 15.9192 22.6194 15.4793 23.2652 14.8335C23.9109 14.1877 24.3506 13.3648 24.5288 12.4691C24.7069 11.5733 24.6154 10.6449 24.2659 9.80113C23.9164 8.95737 23.3245 8.2362 22.5651 7.72882C21.8057 7.22144 20.9129 6.95062 19.9996 6.95062C18.7752 6.95203 17.6014 7.43908 16.7357 8.30492C15.87 9.17076 15.3831 10.3447 15.3818 11.5691ZM23.5237 11.5691C23.5236 12.266 23.3168 12.9473 22.9295 13.5268C22.5422 14.1062 21.9918 14.5578 21.3478 14.8244C20.7039 15.0911 19.9953 15.1608 19.3118 15.0247C18.6282 14.8887 18.0003 14.553 17.5075 14.0601C17.0148 13.5672 16.6792 12.9393 16.5433 12.2557C16.4073 11.5721 16.4772 10.8636 16.7439 10.2197C17.0106 9.57579 17.4623 9.02544 18.0418 8.63824C18.6214 8.25104 19.3027 8.04437 19.9996 8.04437C20.9341 8.04537 21.83 8.41705 22.4907 9.07786C23.1513 9.73867 23.5229 10.6346 23.5237 11.5691Z" fill="black"/>
<path d="M3.4806 34.071C3.54766 34.0967 3.61915 34.109 3.69096 34.107C3.76277 34.1051 3.8335 34.089 3.89908 34.0597C3.96466 34.0304 4.02381 33.9884 4.07314 33.9362C4.12246 33.8839 4.161 33.8225 4.18653 33.7553L4.68653 32.4428C4.73451 32.3082 4.72787 32.1602 4.66804 32.0304C4.60822 31.9006 4.49996 31.7993 4.36644 31.7484C4.23292 31.6974 4.08474 31.7007 3.95364 31.7576C3.82254 31.8145 3.71892 31.9205 3.66497 32.0528L3.16497 33.3653C3.13932 33.4324 3.12713 33.5038 3.12911 33.5756C3.13109 33.6474 3.1472 33.718 3.17652 33.7836C3.20583 33.8491 3.24777 33.9082 3.29995 33.9575C3.35213 34.0069 3.41351 34.0454 3.4806 34.071Z" fill="black"/>
<path d="M38.5399 37.8341L34.0818 26.1466C34.0423 26.0431 33.9723 25.954 33.881 25.8912C33.7898 25.8284 33.6817 25.7947 33.5709 25.7947H25.1334C25.1849 25.7106 25.2362 25.6291 25.2878 25.5447C28.5343 20.1697 30.1681 15.4678 30.1446 11.5716C30.1455 10.5807 30.0011 9.59499 29.7162 8.64594C29.6744 8.50703 29.5792 8.3904 29.4514 8.32172C29.3237 8.25303 29.1738 8.23791 29.0349 8.27969C28.896 8.32146 28.7794 8.4167 28.7107 8.54446C28.642 8.67222 28.6269 8.82203 28.6687 8.96094C28.9232 9.80882 29.0519 10.6894 29.0509 11.5747C29.0981 19.3403 21.8356 28.9212 19.9999 31.2188C18.1643 28.9222 10.9015 19.3437 10.9487 11.5691C10.9489 9.91238 11.4038 8.28752 12.2637 6.87151C13.1237 5.45549 14.3557 4.3026 15.8256 3.53844C17.2956 2.77428 18.947 2.42815 20.6001 2.53774C22.2531 2.64734 23.8444 3.20847 25.2006 4.16C25.3192 4.24342 25.4662 4.27627 25.6091 4.25134C25.752 4.2264 25.8792 4.14571 25.9626 4.02703C26.046 3.90835 26.0789 3.76138 26.0539 3.61848C26.029 3.47557 25.9483 3.34842 25.8296 3.265C24.3098 2.19856 22.5265 1.56956 20.674 1.44651C18.8214 1.32346 16.9706 1.71107 15.3231 2.56713C13.6756 3.42319 12.2946 4.71488 11.3304 6.30154C10.3662 7.88819 9.85588 9.70898 9.85494 11.5656C9.8315 15.4653 11.4653 20.1678 14.7118 25.5422C14.7634 25.6275 14.8146 25.7091 14.8662 25.7922H6.42869C6.31792 25.7922 6.20977 25.8259 6.11854 25.8887C6.0273 25.9515 5.95729 26.0406 5.91775 26.1441L4.6365 29.5072C4.61089 29.5743 4.59875 29.6458 4.60077 29.7176C4.60279 29.7893 4.61893 29.86 4.64827 29.9256C4.70752 30.058 4.81693 30.1614 4.95244 30.2131C5.08795 30.2648 5.23845 30.2606 5.37084 30.2014C5.50323 30.1421 5.60666 30.0327 5.65838 29.8972L6.8065 26.8859H9.3315L15.7187 35.1875L9.26775 37.4819H2.76463L3.27025 36.1553C3.31865 36.0205 3.31224 35.8721 3.25241 35.742C3.19257 35.6119 3.08409 35.5105 2.95027 35.4595C2.81645 35.4085 2.66796 35.412 2.53672 35.4693C2.40548 35.5266 2.30195 35.6331 2.24838 35.7659L1.45994 37.8344C1.42824 37.9172 1.41717 38.0064 1.42768 38.0944C1.43819 38.1825 1.46996 38.2666 1.52026 38.3396C1.57056 38.4126 1.63786 38.4723 1.71637 38.5134C1.79488 38.5546 1.88223 38.5761 1.97088 38.5759H38.029C38.1177 38.5761 38.2051 38.5546 38.2836 38.5135C38.3622 38.4723 38.4295 38.4126 38.4798 38.3395C38.5301 38.2665 38.5619 38.1823 38.5723 38.0942C38.5828 38.0062 38.5717 37.9169 38.5399 37.8341ZM10.7109 26.8869H15.5515C16.7847 28.8146 18.1308 30.6678 19.5828 32.4366C19.6341 32.4969 19.6979 32.5454 19.7699 32.5786C19.8418 32.6119 19.9201 32.6291 19.9993 32.6291C20.0786 32.6291 20.1568 32.6119 20.2288 32.5786C20.3007 32.5454 20.3645 32.4969 20.4159 32.4366C21.8679 30.6678 23.214 28.8146 24.4471 26.8869H33.1931L33.8931 28.7228L16.8028 34.8022L10.7109 26.8869ZM16.7837 35.9688H16.7868L26.9828 32.3437L30.9374 37.4822H12.5312L16.7837 35.9688ZM32.319 37.4813L28.0662 31.9566L34.2849 29.745L37.2359 37.4822L32.319 37.4813Z" fill="black"/>
</svg>
