<svg width="30" height="30" viewBox="0 0 30 30" fill="none" xmlns="http://www.w3.org/2000/svg">
<path d="M30 15C30 14.8178 29.9967 14.6362 29.9903 14.4556C29.7037 6.42352 23.1021 0 15 0C6.89795 0 0.29625 6.42352 0.00972656 14.4556C0.00328125 14.6362 0 14.8178 0 15C0 23.2843 7.7052 29.4557 15 29.4557C22.427 29.4557 30 23.2843 30 15Z" fill="#FF5876"/>
<path d="M15 28.9113C6.89807 28.9113 0.297539 22.4876 0.0108984 14.4556C0.00439453 14.6364 0 14.8177 0 15C0 23.2843 6.71572 30 15 30C23.2843 30 30 23.2843 30 15C30 14.8177 29.9956 14.6364 29.9892 14.4557C29.7025 22.4877 23.1019 28.9113 15 28.9113Z" fill="#E6485D"/>
<path d="M27.505 14.4556C27.22 7.79545 21.7303 2.48334 14.9999 2.48334C8.26957 2.48334 2.77993 7.79545 2.49493 14.4556C2.48719 14.6361 2.49487 26.7205 14.9999 26.7205C27.505 26.7205 27.5127 14.6361 27.505 14.4556Z" fill="#E4EEF9"/>
<path d="M15 26.428C8.2697 26.428 2.78094 21.1157 2.49582 14.4556C2.48808 14.6362 2.48334 14.8175 2.48334 14.9999C2.48334 21.9127 8.08724 27.5166 15 27.5166C21.9128 27.5166 27.5167 21.9128 27.5167 15C27.5167 14.8175 27.5119 14.6362 27.5042 14.4557C27.2191 21.1158 21.7303 26.428 15 26.428Z" fill="#D5E0F2"/>
<path d="M19.5465 10.6084C19.1898 10.2565 18.6153 10.2605 18.2635 10.6172L16.1346 12.7756L16.3485 13.8032L17.343 14.1344L19.5554 11.8914C19.9072 11.5347 19.9033 10.9602 19.5465 10.6084Z" fill="#405B6C"/>
<path d="M13.7157 12.8582L8.88749 8.55558C8.51337 8.22218 7.93991 8.25523 7.60657 8.62935C7.27323 9.00342 7.30622 9.57693 7.68034 9.91027L12.6037 14.2977L13.6296 13.9555L13.7157 12.8582Z" fill="#405B6C"/>
<path d="M21.424 20.8498C21.321 20.8498 21.2175 20.815 21.1325 20.7435L15.386 15.9167C15.1942 15.7556 15.1692 15.4694 15.3304 15.2776C15.4915 15.0857 15.7776 15.0608 15.9695 15.222L21.716 20.0489C21.9078 20.21 21.9327 20.4962 21.7716 20.688C21.6819 20.7948 21.5534 20.8498 21.424 20.8498Z" fill="#86DCFF"/>
<path d="M12.6036 14.2976L13.4509 15.0527L14.539 14.6829L14.48 13.5393L13.7157 12.8582C13.184 13.1777 12.7815 13.6897 12.6036 14.2976Z" fill="#2D4456"/>
<path d="M16.1346 12.7757L15.4142 13.506V14.9395H16.549L17.343 14.1345C17.1248 13.5441 16.6897 13.0594 16.1346 12.7757Z" fill="#2D4456"/>
<path d="M16.4522 14.4556C16.2317 13.8679 15.6647 13.4496 15 13.4496C14.3354 13.4496 13.7684 13.8679 13.5479 14.4556C13.4844 14.6249 13.5437 16.0061 15 16.0061C16.4564 16.0061 16.5157 14.6249 16.4522 14.4556Z" fill="#FF5876"/>
<path d="M14.9999 15.4617C14.3352 15.4617 13.7684 15.0434 13.548 14.4557C13.4844 14.6251 13.4495 14.8084 13.4495 15C13.4495 15.8563 14.1436 16.5504 14.9999 16.5504C15.8561 16.5504 16.5502 15.8562 16.5502 15C16.5502 14.8084 16.5153 14.6251 16.4517 14.4557C16.2314 15.0433 15.6646 15.4617 14.9999 15.4617Z" fill="#E6485D"/>
</svg>
